<mxfile host="app.diagrams.net" modified="2023-11-03T00:58:33.701Z" agent="Mozilla/5.0 (Macintosh; Intel Mac OS X 10_15_7) AppleWebKit/605.1.15 (KHTML, like Gecko) Version/16.3 Safari/605.1.15" version="22.0.8" etag="MOo76uI607doaU8TrbII" type="github">
  <diagram name="Page-1" id="zGF4_sGwjLN_Bwj6_8bX">
    <mxGraphModel>
      <root>
        <mxCell id="0" />
        <mxCell id="1" parent="0" />
      </root>
    </mxGraphModel>
  </diagram>
</mxfile>
